<mxfile host="Electron" modified="2024-07-30T06:33:36.288Z" agent="Mozilla/5.0 (Windows NT 10.0; Win64; x64) AppleWebKit/537.36 (KHTML, like Gecko) draw.io/24.6.4 Chrome/124.0.6367.207 Electron/30.0.6 Safari/537.36" etag="aT28CuxhNKnJVf5igYNo" version="24.6.4" type="device">
  <diagram name="第 1 页" id="COzlhIyQZU9_9gc85hUS">
    <mxGraphModel dx="1474" dy="1848" grid="0" gridSize="10" guides="1" tooltips="1" connect="1" arrows="1" fold="1" page="0" pageScale="1" pageWidth="827" pageHeight="1169" math="0" shadow="0">
      <root>
        <mxCell id="0" />
        <mxCell id="1" parent="0" />
        <mxCell id="CpfF64WK9JMlEOt1mali-6" style="edgeStyle=orthogonalEdgeStyle;rounded=0;orthogonalLoop=1;jettySize=auto;html=1;exitX=0.5;exitY=1;exitDx=0;exitDy=0;entryX=0.5;entryY=0;entryDx=0;entryDy=0;fontSize=16;" edge="1" parent="1" source="CpfF64WK9JMlEOt1mali-3" target="CpfF64WK9JMlEOt1mali-4">
          <mxGeometry relative="1" as="geometry" />
        </mxCell>
        <mxCell id="CpfF64WK9JMlEOt1mali-3" value="&lt;font style=&quot;font-size: 16px;&quot;&gt;客户端发送slaveof &amp;lt;matster_ip&amp;gt; &amp;lt;master_port&amp;gt;命令给slave&lt;/font&gt;" style="rounded=0;whiteSpace=wrap;html=1;fillColor=#dae8fc;strokeColor=#6c8ebf;fontSize=16;" vertex="1" parent="1">
          <mxGeometry x="280" y="-920" width="560" height="40" as="geometry" />
        </mxCell>
        <mxCell id="CpfF64WK9JMlEOt1mali-7" style="edgeStyle=orthogonalEdgeStyle;rounded=0;orthogonalLoop=1;jettySize=auto;html=1;entryX=0.5;entryY=0;entryDx=0;entryDy=0;fontSize=16;" edge="1" parent="1" source="CpfF64WK9JMlEOt1mali-4" target="CpfF64WK9JMlEOt1mali-5">
          <mxGeometry relative="1" as="geometry" />
        </mxCell>
        <mxCell id="CpfF64WK9JMlEOt1mali-4" value="&lt;font style=&quot;font-size: 16px;&quot;&gt;slave接收到slaveof命令后将master地址保存到本地&lt;/font&gt;" style="rounded=0;whiteSpace=wrap;html=1;fillColor=#dae8fc;strokeColor=#6c8ebf;fontSize=16;" vertex="1" parent="1">
          <mxGeometry x="280" y="-840" width="560" height="40" as="geometry" />
        </mxCell>
        <mxCell id="CpfF64WK9JMlEOt1mali-12" style="edgeStyle=orthogonalEdgeStyle;rounded=0;orthogonalLoop=1;jettySize=auto;html=1;exitX=0.5;exitY=1;exitDx=0;exitDy=0;entryX=0.5;entryY=0;entryDx=0;entryDy=0;fontSize=16;" edge="1" parent="1" source="CpfF64WK9JMlEOt1mali-5" target="CpfF64WK9JMlEOt1mali-8">
          <mxGeometry relative="1" as="geometry" />
        </mxCell>
        <mxCell id="CpfF64WK9JMlEOt1mali-5" value="&lt;font style=&quot;font-size: 16px;&quot;&gt;slave中的定时任务会向master发出连接请求&lt;/font&gt;" style="rounded=0;whiteSpace=wrap;html=1;fillColor=#dae8fc;strokeColor=#6c8ebf;fontSize=16;" vertex="1" parent="1">
          <mxGeometry x="280" y="-760" width="560" height="40" as="geometry" />
        </mxCell>
        <mxCell id="CpfF64WK9JMlEOt1mali-9" style="edgeStyle=orthogonalEdgeStyle;rounded=0;orthogonalLoop=1;jettySize=auto;html=1;exitX=1;exitY=0.5;exitDx=0;exitDy=0;entryX=1;entryY=0.5;entryDx=0;entryDy=0;fontSize=16;" edge="1" parent="1" source="CpfF64WK9JMlEOt1mali-8" target="CpfF64WK9JMlEOt1mali-5">
          <mxGeometry relative="1" as="geometry">
            <Array as="points">
              <mxPoint x="890" y="-660" />
              <mxPoint x="890" y="-740" />
            </Array>
          </mxGeometry>
        </mxCell>
        <mxCell id="CpfF64WK9JMlEOt1mali-13" style="edgeStyle=orthogonalEdgeStyle;rounded=0;orthogonalLoop=1;jettySize=auto;html=1;exitX=0.5;exitY=1;exitDx=0;exitDy=0;entryX=0.5;entryY=0;entryDx=0;entryDy=0;fontSize=16;" edge="1" parent="1" source="CpfF64WK9JMlEOt1mali-8" target="CpfF64WK9JMlEOt1mali-11">
          <mxGeometry relative="1" as="geometry" />
        </mxCell>
        <mxCell id="CpfF64WK9JMlEOt1mali-16" style="edgeStyle=orthogonalEdgeStyle;rounded=0;orthogonalLoop=1;jettySize=auto;html=1;exitX=0;exitY=0.5;exitDx=0;exitDy=0;fontSize=16;" edge="1" parent="1" source="CpfF64WK9JMlEOt1mali-8" target="CpfF64WK9JMlEOt1mali-15">
          <mxGeometry relative="1" as="geometry" />
        </mxCell>
        <mxCell id="CpfF64WK9JMlEOt1mali-8" value="&lt;font style=&quot;font-size: 16px;&quot;&gt;连接成功？&lt;/font&gt;" style="rhombus;whiteSpace=wrap;html=1;fillColor=#ffe6cc;strokeColor=#d79b00;fontSize=16;" vertex="1" parent="1">
          <mxGeometry x="280" y="-680" width="560" height="40" as="geometry" />
        </mxCell>
        <mxCell id="CpfF64WK9JMlEOt1mali-10" value="否" style="text;html=1;align=center;verticalAlign=middle;resizable=0;points=[];autosize=1;strokeColor=none;fillColor=none;fontSize=16;" vertex="1" parent="1">
          <mxGeometry x="790" y="-692" width="40" height="30" as="geometry" />
        </mxCell>
        <mxCell id="CpfF64WK9JMlEOt1mali-19" value="" style="edgeStyle=orthogonalEdgeStyle;rounded=0;orthogonalLoop=1;jettySize=auto;html=1;fontSize=16;" edge="1" parent="1" source="CpfF64WK9JMlEOt1mali-11" target="CpfF64WK9JMlEOt1mali-18">
          <mxGeometry relative="1" as="geometry" />
        </mxCell>
        <mxCell id="CpfF64WK9JMlEOt1mali-11" value="&lt;font style=&quot;font-size: 16px;&quot;&gt;连接成功后slave会发送ping命令给master进行首次通信&lt;/font&gt;" style="rounded=0;whiteSpace=wrap;html=1;fillColor=#dae8fc;strokeColor=#6c8ebf;fontSize=16;" vertex="1" parent="1">
          <mxGeometry x="280" y="-600" width="560" height="40" as="geometry" />
        </mxCell>
        <mxCell id="CpfF64WK9JMlEOt1mali-14" value="是" style="text;html=1;align=center;verticalAlign=middle;resizable=0;points=[];autosize=1;strokeColor=none;fillColor=none;fontSize=16;" vertex="1" parent="1">
          <mxGeometry x="560" y="-642" width="40" height="30" as="geometry" />
        </mxCell>
        <mxCell id="CpfF64WK9JMlEOt1mali-15" value="&lt;font style=&quot;font-size: 16px;&quot;&gt;停止连接&lt;/font&gt;" style="rounded=0;whiteSpace=wrap;html=1;fillColor=#f8cecc;strokeColor=#b85450;fontSize=16;" vertex="1" parent="1">
          <mxGeometry y="-680" width="120" height="40" as="geometry" />
        </mxCell>
        <mxCell id="CpfF64WK9JMlEOt1mali-17" value="&lt;font style=&quot;font-size: 16px;&quot;&gt;接收到slaveof no one命令&lt;/font&gt;" style="text;html=1;align=center;verticalAlign=middle;resizable=0;points=[];autosize=1;strokeColor=none;fillColor=none;fontSize=16;" vertex="1" parent="1">
          <mxGeometry x="120" y="-692" width="210" height="30" as="geometry" />
        </mxCell>
        <mxCell id="CpfF64WK9JMlEOt1mali-21" value="" style="edgeStyle=orthogonalEdgeStyle;rounded=0;orthogonalLoop=1;jettySize=auto;html=1;fontSize=16;" edge="1" parent="1" source="CpfF64WK9JMlEOt1mali-18" target="CpfF64WK9JMlEOt1mali-20">
          <mxGeometry relative="1" as="geometry" />
        </mxCell>
        <mxCell id="CpfF64WK9JMlEOt1mali-18" value="&lt;font style=&quot;font-size: 16px;&quot;&gt;master在接收到slave的ping命令后对slave进行身份验证&lt;/font&gt;" style="rounded=0;whiteSpace=wrap;html=1;fillColor=#dae8fc;strokeColor=#6c8ebf;fontSize=16;" vertex="1" parent="1">
          <mxGeometry x="280" y="-520" width="560" height="40" as="geometry" />
        </mxCell>
        <mxCell id="CpfF64WK9JMlEOt1mali-23" style="edgeStyle=orthogonalEdgeStyle;rounded=0;orthogonalLoop=1;jettySize=auto;html=1;fontSize=16;" edge="1" parent="1" source="CpfF64WK9JMlEOt1mali-20" target="CpfF64WK9JMlEOt1mali-22">
          <mxGeometry relative="1" as="geometry" />
        </mxCell>
        <mxCell id="CpfF64WK9JMlEOt1mali-26" value="" style="edgeStyle=orthogonalEdgeStyle;rounded=0;orthogonalLoop=1;jettySize=auto;html=1;fontSize=16;" edge="1" parent="1" source="CpfF64WK9JMlEOt1mali-20" target="CpfF64WK9JMlEOt1mali-25">
          <mxGeometry relative="1" as="geometry" />
        </mxCell>
        <mxCell id="CpfF64WK9JMlEOt1mali-20" value="&lt;font style=&quot;font-size: 16px;&quot;&gt;身份认证成功？&lt;/font&gt;" style="rhombus;whiteSpace=wrap;html=1;fillColor=#ffe6cc;strokeColor=#d79b00;fontSize=16;" vertex="1" parent="1">
          <mxGeometry x="280" y="-440" width="560" height="40" as="geometry" />
        </mxCell>
        <mxCell id="CpfF64WK9JMlEOt1mali-22" value="&lt;font style=&quot;font-size: 16px;&quot;&gt;拒绝连接&lt;/font&gt;" style="rounded=0;whiteSpace=wrap;html=1;fillColor=#f8cecc;strokeColor=#b85450;fontSize=16;" vertex="1" parent="1">
          <mxGeometry y="-440" width="120" height="40" as="geometry" />
        </mxCell>
        <mxCell id="CpfF64WK9JMlEOt1mali-24" value="否" style="text;html=1;align=center;verticalAlign=middle;resizable=0;points=[];autosize=1;strokeColor=none;fillColor=none;fontSize=16;" vertex="1" parent="1">
          <mxGeometry x="250" y="-452" width="40" height="30" as="geometry" />
        </mxCell>
        <mxCell id="CpfF64WK9JMlEOt1mali-29" value="" style="edgeStyle=orthogonalEdgeStyle;rounded=0;orthogonalLoop=1;jettySize=auto;html=1;fontSize=16;" edge="1" parent="1" source="CpfF64WK9JMlEOt1mali-25" target="CpfF64WK9JMlEOt1mali-28">
          <mxGeometry relative="1" as="geometry" />
        </mxCell>
        <mxCell id="CpfF64WK9JMlEOt1mali-25" value="&lt;font style=&quot;font-size: 16px;&quot;&gt;master向slave发送连接成功响应&lt;/font&gt;" style="rounded=0;whiteSpace=wrap;html=1;fillColor=#dae8fc;strokeColor=#6c8ebf;fontSize=16;" vertex="1" parent="1">
          <mxGeometry x="280" y="-360" width="560" height="40" as="geometry" />
        </mxCell>
        <mxCell id="CpfF64WK9JMlEOt1mali-27" value="是" style="text;html=1;align=center;verticalAlign=middle;resizable=0;points=[];autosize=1;strokeColor=none;fillColor=none;fontSize=16;" vertex="1" parent="1">
          <mxGeometry x="560" y="-402" width="40" height="30" as="geometry" />
        </mxCell>
        <mxCell id="CpfF64WK9JMlEOt1mali-30" style="edgeStyle=orthogonalEdgeStyle;rounded=0;orthogonalLoop=1;jettySize=auto;html=1;exitX=1;exitY=0.5;exitDx=0;exitDy=0;entryX=1;entryY=0.5;entryDx=0;entryDy=0;fontSize=16;" edge="1" parent="1" source="CpfF64WK9JMlEOt1mali-28" target="CpfF64WK9JMlEOt1mali-5">
          <mxGeometry relative="1" as="geometry">
            <Array as="points">
              <mxPoint x="890" y="-260" />
              <mxPoint x="890" y="-740" />
            </Array>
          </mxGeometry>
        </mxCell>
        <mxCell id="CpfF64WK9JMlEOt1mali-33" value="" style="edgeStyle=orthogonalEdgeStyle;rounded=0;orthogonalLoop=1;jettySize=auto;html=1;fontSize=16;" edge="1" parent="1" source="CpfF64WK9JMlEOt1mali-28" target="CpfF64WK9JMlEOt1mali-32">
          <mxGeometry relative="1" as="geometry" />
        </mxCell>
        <mxCell id="CpfF64WK9JMlEOt1mali-28" value="&lt;font style=&quot;font-size: 16px;&quot;&gt;slave接收到了master响应？&lt;/font&gt;" style="rhombus;whiteSpace=wrap;html=1;fillColor=#ffe6cc;strokeColor=#d79b00;fontSize=16;" vertex="1" parent="1">
          <mxGeometry x="280" y="-280" width="560" height="40" as="geometry" />
        </mxCell>
        <mxCell id="CpfF64WK9JMlEOt1mali-31" value="否" style="text;html=1;align=center;verticalAlign=middle;resizable=0;points=[];autosize=1;strokeColor=none;fillColor=none;fontSize=16;" vertex="1" parent="1">
          <mxGeometry x="820" y="-282" width="40" height="30" as="geometry" />
        </mxCell>
        <mxCell id="CpfF64WK9JMlEOt1mali-38" value="" style="edgeStyle=orthogonalEdgeStyle;rounded=0;orthogonalLoop=1;jettySize=auto;html=1;fontSize=16;" edge="1" parent="1" source="CpfF64WK9JMlEOt1mali-32" target="CpfF64WK9JMlEOt1mali-35">
          <mxGeometry relative="1" as="geometry" />
        </mxCell>
        <mxCell id="CpfF64WK9JMlEOt1mali-32" value="&lt;font style=&quot;font-size: 16px;&quot;&gt;slave向master发送全量数据同步请求&lt;/font&gt;" style="rounded=0;whiteSpace=wrap;html=1;fillColor=#dae8fc;strokeColor=#6c8ebf;fontSize=16;" vertex="1" parent="1">
          <mxGeometry x="280" y="-200" width="560" height="40" as="geometry" />
        </mxCell>
        <mxCell id="CpfF64WK9JMlEOt1mali-34" value="是" style="text;html=1;align=center;verticalAlign=middle;resizable=0;points=[];autosize=1;strokeColor=none;fillColor=none;fontSize=16;" vertex="1" parent="1">
          <mxGeometry x="550" y="-242" width="40" height="30" as="geometry" />
        </mxCell>
        <mxCell id="CpfF64WK9JMlEOt1mali-39" value="" style="edgeStyle=orthogonalEdgeStyle;rounded=0;orthogonalLoop=1;jettySize=auto;html=1;fontSize=16;" edge="1" parent="1" source="CpfF64WK9JMlEOt1mali-35" target="CpfF64WK9JMlEOt1mali-36">
          <mxGeometry relative="1" as="geometry" />
        </mxCell>
        <mxCell id="CpfF64WK9JMlEOt1mali-35" value="&lt;font style=&quot;font-size: 16px;&quot;&gt;master在接收到数据同步请求后fork出一个子进程进行数据持久化&lt;/font&gt;" style="rounded=0;whiteSpace=wrap;html=1;fillColor=#dae8fc;strokeColor=#6c8ebf;fontSize=16;" vertex="1" parent="1">
          <mxGeometry x="280" y="-120" width="560" height="40" as="geometry" />
        </mxCell>
        <mxCell id="CpfF64WK9JMlEOt1mali-40" value="" style="edgeStyle=orthogonalEdgeStyle;rounded=0;orthogonalLoop=1;jettySize=auto;html=1;fontSize=16;" edge="1" parent="1" source="CpfF64WK9JMlEOt1mali-36" target="CpfF64WK9JMlEOt1mali-37">
          <mxGeometry relative="1" as="geometry" />
        </mxCell>
        <mxCell id="CpfF64WK9JMlEOt1mali-36" value="&lt;font style=&quot;font-size: 16px;&quot;&gt;持久化完毕后master再fork出一个子进程将其持久化文件发送给slave&lt;/font&gt;" style="rounded=0;whiteSpace=wrap;html=1;fillColor=#dae8fc;strokeColor=#6c8ebf;fontSize=16;" vertex="1" parent="1">
          <mxGeometry x="280" y="-40" width="560" height="40" as="geometry" />
        </mxCell>
        <mxCell id="CpfF64WK9JMlEOt1mali-42" value="" style="edgeStyle=orthogonalEdgeStyle;rounded=0;orthogonalLoop=1;jettySize=auto;html=1;fontSize=16;" edge="1" parent="1" source="CpfF64WK9JMlEOt1mali-37" target="CpfF64WK9JMlEOt1mali-41">
          <mxGeometry relative="1" as="geometry" />
        </mxCell>
        <mxCell id="CpfF64WK9JMlEOt1mali-37" value="&lt;font style=&quot;font-size: 16px;&quot;&gt;slave接收到master的数据并写入到本地的数据持久化文件&lt;/font&gt;" style="rounded=0;whiteSpace=wrap;html=1;fillColor=#dae8fc;strokeColor=#6c8ebf;fontSize=16;" vertex="1" parent="1">
          <mxGeometry x="280" y="40" width="560" height="40" as="geometry" />
        </mxCell>
        <mxCell id="CpfF64WK9JMlEOt1mali-44" style="edgeStyle=orthogonalEdgeStyle;rounded=0;orthogonalLoop=1;jettySize=auto;html=1;fontSize=16;" edge="1" parent="1" source="CpfF64WK9JMlEOt1mali-41" target="CpfF64WK9JMlEOt1mali-43">
          <mxGeometry relative="1" as="geometry" />
        </mxCell>
        <mxCell id="CpfF64WK9JMlEOt1mali-48" style="edgeStyle=orthogonalEdgeStyle;rounded=0;orthogonalLoop=1;jettySize=auto;html=1;exitX=1;exitY=0.5;exitDx=0;exitDy=0;entryX=0.5;entryY=0;entryDx=0;entryDy=0;fontSize=16;" edge="1" parent="1" source="CpfF64WK9JMlEOt1mali-41" target="CpfF64WK9JMlEOt1mali-47">
          <mxGeometry relative="1" as="geometry" />
        </mxCell>
        <mxCell id="CpfF64WK9JMlEOt1mali-41" value="&lt;font style=&quot;font-size: 16px;&quot;&gt;数据同步过程中master主进程又有写操作发生？&lt;/font&gt;" style="rhombus;whiteSpace=wrap;html=1;fillColor=#ffe6cc;strokeColor=#d79b00;fontSize=16;" vertex="1" parent="1">
          <mxGeometry x="280" y="120" width="560" height="40" as="geometry" />
        </mxCell>
        <mxCell id="CpfF64WK9JMlEOt1mali-46" value="" style="edgeStyle=orthogonalEdgeStyle;rounded=0;orthogonalLoop=1;jettySize=auto;html=1;fontSize=16;" edge="1" parent="1" source="CpfF64WK9JMlEOt1mali-43" target="CpfF64WK9JMlEOt1mali-45">
          <mxGeometry relative="1" as="geometry" />
        </mxCell>
        <mxCell id="CpfF64WK9JMlEOt1mali-43" value="&lt;font style=&quot;font-size: 16px;&quot;&gt;数据同步完毕后slave读取本地持久化文件，恢复内存数据，对外服务&lt;/font&gt;" style="rounded=0;whiteSpace=wrap;html=1;fillColor=#dae8fc;strokeColor=#6c8ebf;fontSize=16;" vertex="1" parent="1">
          <mxGeometry x="280" y="550" width="560" height="40" as="geometry" />
        </mxCell>
        <mxCell id="CpfF64WK9JMlEOt1mali-45" value="&lt;font style=&quot;font-size: 16px;&quot;&gt;对外服务中master持续接收到写操作，会以增量方式发送给slave&lt;/font&gt;" style="rounded=0;whiteSpace=wrap;html=1;fillColor=#dae8fc;strokeColor=#6c8ebf;fontSize=16;" vertex="1" parent="1">
          <mxGeometry x="280" y="630" width="560" height="40" as="geometry" />
        </mxCell>
        <mxCell id="CpfF64WK9JMlEOt1mali-55" value="" style="edgeStyle=orthogonalEdgeStyle;rounded=0;orthogonalLoop=1;jettySize=auto;html=1;fontSize=16;" edge="1" parent="1" source="CpfF64WK9JMlEOt1mali-47" target="CpfF64WK9JMlEOt1mali-51">
          <mxGeometry relative="1" as="geometry" />
        </mxCell>
        <mxCell id="CpfF64WK9JMlEOt1mali-47" value="&lt;font style=&quot;font-size: 16px;&quot;&gt;master将数据写入到本地内存的同时又将数据写入同步缓存&lt;/font&gt;" style="rounded=0;whiteSpace=wrap;html=1;fillColor=#dae8fc;strokeColor=#6c8ebf;fontSize=16;" vertex="1" parent="1">
          <mxGeometry x="720" y="200" width="560" height="40" as="geometry" />
        </mxCell>
        <mxCell id="CpfF64WK9JMlEOt1mali-49" value="否" style="text;html=1;align=center;verticalAlign=middle;resizable=0;points=[];autosize=1;strokeColor=none;fillColor=none;fontSize=16;" vertex="1" parent="1">
          <mxGeometry x="550" y="158" width="40" height="30" as="geometry" />
        </mxCell>
        <mxCell id="CpfF64WK9JMlEOt1mali-50" value="是" style="text;html=1;align=center;verticalAlign=middle;resizable=0;points=[];autosize=1;strokeColor=none;fillColor=none;fontSize=16;" vertex="1" parent="1">
          <mxGeometry x="830" y="110" width="40" height="30" as="geometry" />
        </mxCell>
        <mxCell id="CpfF64WK9JMlEOt1mali-56" value="" style="edgeStyle=orthogonalEdgeStyle;rounded=0;orthogonalLoop=1;jettySize=auto;html=1;fontSize=16;" edge="1" parent="1" source="CpfF64WK9JMlEOt1mali-51" target="CpfF64WK9JMlEOt1mali-54">
          <mxGeometry relative="1" as="geometry" />
        </mxCell>
        <mxCell id="CpfF64WK9JMlEOt1mali-60" value="" style="edgeStyle=orthogonalEdgeStyle;rounded=0;orthogonalLoop=1;jettySize=auto;html=1;fontSize=16;" edge="1" parent="1" source="CpfF64WK9JMlEOt1mali-51" target="CpfF64WK9JMlEOt1mali-54">
          <mxGeometry relative="1" as="geometry" />
        </mxCell>
        <mxCell id="CpfF64WK9JMlEOt1mali-62" style="edgeStyle=orthogonalEdgeStyle;rounded=0;orthogonalLoop=1;jettySize=auto;html=1;entryX=1;entryY=0.5;entryDx=0;entryDy=0;fontSize=16;" edge="1" parent="1" source="CpfF64WK9JMlEOt1mali-51" target="CpfF64WK9JMlEOt1mali-47">
          <mxGeometry relative="1" as="geometry">
            <Array as="points">
              <mxPoint x="1310" y="300" />
              <mxPoint x="1310" y="220" />
            </Array>
          </mxGeometry>
        </mxCell>
        <mxCell id="CpfF64WK9JMlEOt1mali-51" value="&lt;font style=&quot;font-size: 16px;&quot;&gt;master的持久化文件数据发送完毕？&lt;/font&gt;" style="rhombus;whiteSpace=wrap;html=1;fillColor=#ffe6cc;strokeColor=#d79b00;fontSize=16;" vertex="1" parent="1">
          <mxGeometry x="720" y="280" width="560" height="40" as="geometry" />
        </mxCell>
        <mxCell id="CpfF64WK9JMlEOt1mali-58" value="" style="edgeStyle=orthogonalEdgeStyle;rounded=0;orthogonalLoop=1;jettySize=auto;html=1;fontSize=16;" edge="1" parent="1" source="CpfF64WK9JMlEOt1mali-54" target="CpfF64WK9JMlEOt1mali-57">
          <mxGeometry relative="1" as="geometry" />
        </mxCell>
        <mxCell id="CpfF64WK9JMlEOt1mali-54" value="&lt;font style=&quot;font-size: 16px;&quot;&gt;master将同步缓存中的数据发送给slave（数据补偿）&lt;/font&gt;" style="rounded=0;whiteSpace=wrap;html=1;fillColor=#dae8fc;strokeColor=#6c8ebf;fontSize=16;" vertex="1" parent="1">
          <mxGeometry x="720" y="360" width="560" height="40" as="geometry" />
        </mxCell>
        <mxCell id="CpfF64WK9JMlEOt1mali-59" style="edgeStyle=orthogonalEdgeStyle;rounded=0;orthogonalLoop=1;jettySize=auto;html=1;entryX=1;entryY=0.5;entryDx=0;entryDy=0;fontSize=16;" edge="1" parent="1" source="CpfF64WK9JMlEOt1mali-57" target="CpfF64WK9JMlEOt1mali-43">
          <mxGeometry relative="1" as="geometry" />
        </mxCell>
        <mxCell id="CpfF64WK9JMlEOt1mali-57" value="&lt;font style=&quot;font-size: 16px;&quot;&gt;slave将数据追加到本地持久化文件中，数据同步完毕&lt;/font&gt;" style="rounded=0;whiteSpace=wrap;html=1;fillColor=#dae8fc;strokeColor=#6c8ebf;fontSize=16;" vertex="1" parent="1">
          <mxGeometry x="720" y="440" width="560" height="40" as="geometry" />
        </mxCell>
        <mxCell id="CpfF64WK9JMlEOt1mali-61" value="是" style="text;html=1;align=center;verticalAlign=middle;resizable=0;points=[];autosize=1;strokeColor=none;fillColor=none;fontSize=16;" vertex="1" parent="1">
          <mxGeometry x="1000" y="318" width="40" height="30" as="geometry" />
        </mxCell>
        <mxCell id="CpfF64WK9JMlEOt1mali-63" value="否" style="text;html=1;align=center;verticalAlign=middle;resizable=0;points=[];autosize=1;strokeColor=none;fillColor=none;fontSize=16;" vertex="1" parent="1">
          <mxGeometry x="1260" y="270" width="40" height="30" as="geometry" />
        </mxCell>
      </root>
    </mxGraphModel>
  </diagram>
</mxfile>
